<svg width="28" height="28" viewBox="0 0 28 28" fill="none" xmlns="http://www.w3.org/2000/svg">
<path d="M23.3337 15.1669C23.3337 21.0002 19.2503 23.9169 14.397 25.6085C14.1428 25.6947 13.8668 25.6905 13.6153 25.5969C8.75033 23.9169 4.66699 21.0002 4.66699 15.1669V7.0002C4.66699 6.69078 4.78991 6.39403 5.0087 6.17524C5.22749 5.95645 5.52424 5.83353 5.83366 5.83353C8.16699 5.83353 11.0837 4.43353 13.1137 2.6602C13.3608 2.44903 13.6752 2.33301 14.0003 2.33301C14.3254 2.33301 14.6398 2.44903 14.887 2.6602C16.9287 4.4452 19.8337 5.83353 22.167 5.83353C22.4764 5.83353 22.7732 5.95645 22.992 6.17524C23.2107 6.39403 23.3337 6.69078 23.3337 7.0002V15.1669Z" stroke="#111827" stroke-width="1.45833" stroke-linecap="round" stroke-linejoin="round"/>
<path d="M10.5 13.9998L12.8333 16.3332L17.5 11.6665" stroke="#111827" stroke-width="1.45833" stroke-linecap="round" stroke-linejoin="round"/>
</svg>
