<svg width="21" height="25" viewBox="0 0 21 25" fill="none" xmlns="http://www.w3.org/2000/svg">
<path d="M19.3962 13.5629C19.3962 19.3962 15.3128 22.3129 10.4595 24.0045C10.2053 24.0906 9.92929 24.0865 9.67783 23.9929C4.81283 22.3129 0.729492 19.3962 0.729492 13.5629V5.3962C0.729492 5.08678 0.852409 4.79003 1.0712 4.57124C1.28999 4.35244 1.58674 4.22953 1.89616 4.22953C4.22949 4.22953 7.14616 2.82953 9.17616 1.05619C9.42332 0.845027 9.73774 0.729004 10.0628 0.729004C10.3879 0.729004 10.7023 0.845027 10.9495 1.05619C12.9912 2.84119 15.8962 4.22953 18.2295 4.22953C18.5389 4.22953 18.8357 4.35244 19.0545 4.57124C19.2732 4.79003 19.3962 5.08678 19.3962 5.3962V13.5629Z" stroke="#111827" stroke-width="1.45833" stroke-linecap="round" stroke-linejoin="round"/>
</svg>
