<svg width="25" height="25" viewBox="0 0 25 25" fill="none" xmlns="http://www.w3.org/2000/svg">
<path d="M9.98755 16.4793C9.88339 16.0755 9.67294 15.7071 9.3781 15.4122C9.08326 15.1174 8.7148 14.907 8.31105 14.8028L1.15355 12.9571C1.03143 12.9225 0.923957 12.8489 0.847428 12.7476C0.770898 12.6464 0.729492 12.5229 0.729492 12.396C0.729492 12.269 0.770898 12.1455 0.847428 12.0443C0.923957 11.943 1.03143 11.8695 1.15355 11.8348L8.31105 9.98796C8.71465 9.8839 9.08302 9.67363 9.37785 9.37901C9.67268 9.08438 9.88321 8.71616 9.98755 8.31263L11.8332 1.15513C11.8675 1.03253 11.941 0.924526 12.0424 0.847588C12.1438 0.77065 12.2677 0.729004 12.395 0.729004C12.5223 0.729004 12.6461 0.77065 12.7475 0.847588C12.8489 0.924526 12.9224 1.03253 12.9567 1.15513L14.8012 8.31263C14.9054 8.71638 15.1158 9.08484 15.4107 9.37968C15.7055 9.67452 16.074 9.88497 16.4777 9.98913L23.6352 11.8336C23.7583 11.8676 23.8668 11.941 23.9442 12.0426C24.0215 12.1441 24.0634 12.2683 24.0634 12.396C24.0634 12.5236 24.0215 12.6478 23.9442 12.7494C23.8668 12.8509 23.7583 12.9243 23.6352 12.9583L16.4777 14.8028C16.074 14.907 15.7055 15.1174 15.4107 15.4122C15.1158 15.7071 14.9054 16.0755 14.8012 16.4793L12.9555 23.6368C12.9212 23.7594 12.8478 23.8674 12.7463 23.9443C12.6449 24.0213 12.5211 24.0629 12.3938 24.0629C12.2665 24.0629 12.1427 24.0213 12.0413 23.9443C11.9398 23.8674 11.8664 23.7594 11.832 23.6368L9.98755 16.4793Z" stroke="#111827" stroke-width="1.45833" stroke-linecap="round" stroke-linejoin="round"/>
</svg>
