<svg width="28" height="28" viewBox="0 0 28 28" fill="none" xmlns="http://www.w3.org/2000/svg">
<path d="M14.7015 25.4323C16.8715 23.5587 23.3337 17.492 23.3337 11.6668C23.3337 9.19148 22.3503 6.81751 20.6 5.06717C18.8496 3.31683 16.4757 2.3335 14.0003 2.3335C11.525 2.3335 9.151 3.31683 7.40066 5.06717C5.65032 6.81751 4.66699 9.19148 4.66699 11.6668C4.66699 17.492 11.1292 23.5587 13.2992 25.4323C13.5013 25.5843 13.7474 25.6665 14.0003 25.6665C14.2533 25.6665 14.4993 25.5843 14.7015 25.4323Z" stroke="#111827" stroke-width="1.45833" stroke-linecap="round" stroke-linejoin="round"/>
<path d="M14 15.1665C15.933 15.1665 17.5 13.5995 17.5 11.6665C17.5 9.73351 15.933 8.1665 14 8.1665C12.067 8.1665 10.5 9.73351 10.5 11.6665C10.5 13.5995 12.067 15.1665 14 15.1665Z" stroke="#111827" stroke-width="1.45833" stroke-linecap="round" stroke-linejoin="round"/>
</svg>
