<svg width="20" height="20" viewBox="0 0 20 20" fill="none" xmlns="http://www.w3.org/2000/svg">
<path d="M13.333 13.3337L15.833 6.66699L18.333 13.3337C17.608 13.8753 16.733 14.167 15.833 14.167C14.933 14.167 14.058 13.8753 13.333 13.3337Z" stroke="#111827" stroke-width="1.04167" stroke-linecap="round" stroke-linejoin="round"/>
<path d="M1.66699 13.3337L4.16699 6.66699L6.66699 13.3337C5.94199 13.8753 5.06699 14.167 4.16699 14.167C3.26699 14.167 2.39199 13.8753 1.66699 13.3337Z" stroke="#111827" stroke-width="1.04167" stroke-linecap="round" stroke-linejoin="round"/>
<path d="M5.83301 17.5H14.1663" stroke="#111827" stroke-width="1.04167" stroke-linecap="round" stroke-linejoin="round"/>
<path d="M10 2.5V17.5" stroke="#111827" stroke-width="1.04167" stroke-linecap="round" stroke-linejoin="round"/>
<path d="M2.5 5.83366H4.16667C5.83333 5.83366 8.33333 5.00033 10 4.16699C11.6667 5.00033 14.1667 5.83366 15.8333 5.83366H17.5" stroke="#111827" stroke-width="1.04167" stroke-linecap="round" stroke-linejoin="round"/>
</svg>
