<svg width="14" height="14" viewBox="0 0 14 14" fill="none" xmlns="http://www.w3.org/2000/svg">
<g clip-path="url(#clip0_3825_102)">
<path d="M7.35026 12.7162C8.43526 11.7793 11.6663 8.746 11.6663 5.83341C11.6663 4.59574 11.1747 3.40875 10.2995 2.53358C9.42434 1.65841 8.23735 1.16675 6.99967 1.16675C5.762 1.16675 4.57501 1.65841 3.69984 2.53358C2.82467 3.40875 2.33301 4.59574 2.33301 5.83341C2.33301 8.746 5.56409 11.7793 6.64909 12.7162C6.75017 12.7922 6.87321 12.8333 6.99967 12.8333C7.12614 12.8333 7.24918 12.7922 7.35026 12.7162Z" stroke="#B7791F" stroke-width="1.16667" stroke-linecap="round" stroke-linejoin="round"/>
<path d="M7 7.58325C7.9665 7.58325 8.75 6.79975 8.75 5.83325C8.75 4.86675 7.9665 4.08325 7 4.08325C6.0335 4.08325 5.25 4.86675 5.25 5.83325C5.25 6.79975 6.0335 7.58325 7 7.58325Z" stroke="#B7791F" stroke-width="1.16667" stroke-linecap="round" stroke-linejoin="round"/>
</g>
<defs>
<clipPath id="clip0_3825_102">
<rect width="14" height="14" fill="white"/>
</clipPath>
</defs>
</svg>
