<svg width="16" height="12" viewBox="0 0 16 12" fill="none" xmlns="http://www.w3.org/2000/svg">
<path fill-rule="evenodd" clip-rule="evenodd" d="M15.3066 4.74698L15.5067 5.19653C15.5759 5.35178 15.5061 5.53366 15.3508 5.60278L1.29992 11.8586C1.14467 11.9278 0.962794 11.8579 0.893675 11.7027L0.701732 11.2716L0.693457 11.2531C-1.10317 7.21778 0.711626 2.49007 4.74692 0.693441C8.78221 -1.10318 13.51 0.711691 15.3066 4.74698ZM2.82356 8.55367C2.63552 8.63739 2.41991 8.51617 2.40853 8.31065C2.28373 6.05724 3.53858 3.85787 5.72286 2.88536C7.90715 1.91286 10.3813 2.45199 11.9724 4.05256C12.1175 4.19854 12.0633 4.43988 11.8753 4.5236L2.82356 8.55367Z" fill="white"/>
</svg>
