<svg width="18" height="20" viewBox="0 0 18 20" fill="none" xmlns="http://www.w3.org/2000/svg">
<path d="M7.90658 18.6567C8.18528 18.8176 8.50143 18.9023 8.82324 18.9023C9.14506 18.9023 9.46121 18.8176 9.73991 18.6567L16.1566 14.99C16.435 14.8293 16.6663 14.5982 16.8272 14.3198C16.988 14.0415 17.0729 13.7257 17.0732 13.4042V6.07087C17.0729 5.74938 16.988 5.43362 16.8272 5.15527C16.6663 4.87693 16.435 4.64579 16.1566 4.48504L9.73991 0.818374C9.46121 0.657465 9.14506 0.572754 8.82324 0.572754C8.50143 0.572754 8.18528 0.657465 7.90658 0.818374L1.48991 4.48504C1.21148 4.64579 0.980224 4.87693 0.819332 5.15527C0.65844 5.43362 0.573572 5.74938 0.573242 6.07087V13.4042C0.573572 13.7257 0.65844 14.0415 0.819332 14.3198C0.980224 14.5982 1.21148 14.8293 1.48991 14.99L7.90658 18.6567Z" stroke="#B7791F" stroke-width="1.14583" stroke-linecap="round" stroke-linejoin="round"/>
</svg>
