<svg width="16" height="16" viewBox="0 0 16 16" fill="none" xmlns="http://www.w3.org/2000/svg">
<path d="M8.40099 14.5323C9.64099 13.4617 13.3337 9.99501 13.3337 6.66634C13.3337 5.25185 12.7718 3.8953 11.7716 2.89511C10.7714 1.89491 9.41481 1.33301 8.00033 1.33301C6.58584 1.33301 5.22928 1.89491 4.22909 2.89511C3.2289 3.8953 2.66699 5.25185 2.66699 6.66634C2.66699 9.99501 6.35966 13.4617 7.59966 14.5323C7.71518 14.6192 7.85579 14.6662 8.00033 14.6662C8.14486 14.6662 8.28548 14.6192 8.40099 14.5323Z" stroke="#111827" stroke-linecap="round" stroke-linejoin="round"/>
<path d="M8 8.66699C9.10457 8.66699 10 7.77156 10 6.66699C10 5.56242 9.10457 4.66699 8 4.66699C6.89543 4.66699 6 5.56242 6 6.66699C6 7.77156 6.89543 8.66699 8 8.66699Z" stroke="#111827" stroke-linecap="round" stroke-linejoin="round"/>
</svg>
