<svg width="16" height="16" viewBox="0 0 16 16" fill="none" xmlns="http://www.w3.org/2000/svg">
<g clip-path="url(#clip0_3825_694)">
<path d="M15.5701 8.13141C15.7728 8.04119 16.0006 8.18877 15.9891 8.41029C15.8373 11.3192 14.0964 14.0405 11.253 15.3065C8.4095 16.5725 5.22226 16.0453 2.95898 14.2117C2.78662 14.072 2.82941 13.804 3.03205 13.7137L4.95663 12.8568C5.04852 12.8159 5.15432 12.823 5.2419 12.8725C6.73363 13.7153 8.59162 13.8649 10.2771 13.1145C11.9625 12.3641 13.0946 10.8833 13.4664 9.21074C13.4882 9.11255 13.5538 9.02917 13.6456 8.98826L15.5701 8.13141Z" fill="white"/>
<path fill-rule="evenodd" clip-rule="evenodd" d="M15.3066 4.74698L15.5067 5.19653C15.5759 5.35178 15.5061 5.53366 15.3508 5.60278L1.29992 11.8586C1.14467 11.9278 0.962794 11.8579 0.893675 11.7027L0.701732 11.2716L0.693457 11.2531C-1.10317 7.21778 0.711626 2.49007 4.74692 0.693441C8.78221 -1.10318 13.51 0.711691 15.3066 4.74698ZM2.82356 8.55367C2.63552 8.63739 2.41991 8.51617 2.40853 8.31065C2.28373 6.05724 3.53858 3.85787 5.72286 2.88536C7.90715 1.91286 10.3813 2.45199 11.9724 4.05256C12.1175 4.19854 12.0633 4.43988 11.8753 4.5236L2.82356 8.55367Z" fill="white"/>
</g>
<defs>
<clipPath id="clip0_3825_694">
<rect width="16" height="16" fill="white"/>
</clipPath>
</defs>
</svg>
